<svg width="240" height="101" viewBox="0 0 240 101" fill="none" xmlns="http://www.w3.org/2000/svg">
<rect width="240" height="101" fill="white"/>
<path fill-rule="evenodd" clip-rule="evenodd" d="M12.4839 29.8128C12.4839 29.8128 27.4606 10.67 51.3628 11.0043C75.2272 11.3387 74.3195 21.2027 74.3195 21.2027L67.7388 20.9937C67.7388 20.9937 77.7611 22.7492 79.9169 25.1316C82.1104 27.5558 84.304 32.5714 84.304 32.5714C84.304 32.5714 92.8891 35.33 94.591 36.7093C96.3307 38.0886 97.1627 38.7155 96.9736 39.7186C96.8224 40.7635 94.9314 42.3518 94.9314 42.3518C94.9314 42.3518 96.5954 44.6506 95.9525 47.66C95.3474 50.6694 92.3218 51.0037 92.3218 51.0037C92.3218 51.0037 91.3385 53.1772 90.3173 54.5146C89.334 55.8521 87.1783 57.0642 87.1783 57.0642C87.1783 57.0642 88.086 53.6787 88.1616 52.6338C88.2372 51.5471 88.0481 50.7111 88.0481 50.7111C88.0481 50.7111 82.6021 50.2096 78.7066 52.6338C74.8112 55.0162 73.1471 57.524 73.1471 57.524C73.1471 57.524 75.8323 61.0767 77.7611 62.2888C79.6899 63.5009 81.1649 63.7935 82.7155 63.7935C84.2661 63.7935 86.7244 61.2021 86.7244 61.2021C86.7244 61.2021 87.1026 63.4591 86.6488 64.8384C86.2328 66.2177 86.3841 68.0986 86.6866 68.8509C87.027 69.5614 87.6699 72.8634 85.2495 75.3712C82.829 77.8372 79.463 78.2969 79.463 78.2969C79.463 78.2969 72.7689 77.1684 66.5286 80.5122C60.2883 83.8977 59.9479 84.5664 59.9479 84.5664C59.9479 84.5664 61.0447 80.5958 62.9357 78.3805C64.7889 76.1235 66.9824 74.0755 66.9824 74.0755C66.9824 74.0755 62.3684 74.8278 56.6954 79.3001C50.9846 83.8141 45.236 90 45.236 90C45.236 90 47.2026 78.2551 53.1025 73.4485C59.0024 68.6837 60.78 68.0568 60.78 68.0568C60.78 68.0568 55.7121 68.4747 52.9512 70.3556C50.1526 72.1946 48.6776 73.4067 48.6776 73.4067C48.6776 73.4067 53.216 66.0505 62.8222 60.1572C72.4285 54.3057 74.0548 52.9264 74.0548 52.9264C74.0548 52.9264 65.7722 53.5115 54.9179 61.6201C44.0635 69.7286 33.3605 81.2227 33.3605 81.2227C33.3605 81.2227 39.4495 68.015 48.1481 58.9451C56.8089 49.8752 63.6921 44.8178 63.6921 44.8178C63.6921 44.8178 58.6999 44.776 51.4763 47.4092C44.2526 50.0424 38.1636 53.8459 38.1636 53.8459C38.1636 53.8459 42.8533 48.4123 46.5218 46.1971C50.1904 43.9401 54.4262 41.5577 54.4262 41.5577C54.4262 41.5577 48.375 45.4448 33.9278 45.5284C28.8221 45.5702 23.9433 44.4834 19.821 43.0206C20.5774 42.2264 21.4094 41.4323 22.2414 40.6382C22.3927 40.471 22.5818 40.3038 22.7331 40.1784C26.8555 40.5546 31.3939 40.5964 35.9323 39.844C50.3795 37.4198 62.4062 29.2277 62.4062 29.2277C62.4062 29.2277 56.3172 28.4335 47.3539 30.9413C38.3527 33.4491 29.2381 36.9183 29.2381 36.9183C29.2381 36.9183 39.2226 27.1378 45.8789 25.257C52.4974 23.3761 54.6909 22.6656 54.6909 22.6656C54.6909 22.6656 44.2148 19.3219 34.5329 21.4535C24.851 23.6269 12.4839 29.8128 12.4839 29.8128ZM69.3273 35.2464C69.3273 35.2464 72.8067 32.3624 74.8868 31.6937C76.9669 31.0667 76.8156 31.4847 77.572 32.4878C78.3662 33.4909 78.9714 33.9507 79.9169 34.2851C80.8624 34.6612 82.413 35.4136 82.413 35.4136L69.3273 35.2464ZM8.28588 55.8521C8.28588 55.8521 9.0801 48.0362 14.9044 41.0561C10.0256 38.8409 7 36.6675 7 36.6675C7 36.6675 10.8198 38.1304 16.5306 39.2589C21.6363 31.3175 33.474 29.8964 33.474 29.8964C33.474 29.8964 24.851 35.8733 20.3504 40.6382C15.8877 45.3612 11.9544 49.3737 8.28588 55.8521Z" fill="url(#paint0_linear)"/>
<path fill-rule="evenodd" clip-rule="evenodd" d="M13.3159 58.0673C13.3159 58.0673 22.5818 60.1572 34.0791 58.4017C45.5385 56.6881 54.5397 50.0424 54.5397 50.0424C54.5397 50.0424 46.6353 60.9931 34.4573 62.1216C22.2792 63.2501 13.3159 58.0673 13.3159 58.0673Z" fill="#030303"/>
<path d="M119.425 55.9678L116.539 58.8242C114.713 56.8906 112.584 55.9238 110.152 55.9238C108.033 55.9238 106.256 56.627 104.82 58.0332C103.395 59.4395 102.682 61.1484 102.682 63.1602C102.682 65.2402 103.424 67.0029 104.908 68.4482C106.393 69.8936 108.224 70.6162 110.401 70.6162C111.817 70.6162 113.009 70.3184 113.976 69.7227C114.952 69.127 115.738 68.1943 116.334 66.9248H110.094V63.0723H120.934L120.963 63.9805C120.963 65.8652 120.475 67.6523 119.498 69.3418C118.521 71.0312 117.257 72.3203 115.704 73.209C114.151 74.0977 112.33 74.542 110.24 74.542C108.004 74.542 106.007 74.0586 104.249 73.0918C102.501 72.1152 101.114 70.7285 100.089 68.9316C99.0732 67.1348 98.5654 65.1963 98.5654 63.1162C98.5654 60.2646 99.5078 57.7842 101.393 55.6748C103.629 53.165 106.539 51.9102 110.123 51.9102C111.998 51.9102 113.751 52.2568 115.382 52.9502C116.759 53.5361 118.106 54.542 119.425 55.9678ZM124.728 52.4521H128.829V70.0889H134.806V74H124.728V52.4521ZM149.278 58.0625H153.263V71.7148C153.263 74.4102 152.721 76.3926 151.637 77.6621C150.182 79.3809 147.989 80.2402 145.06 80.2402C143.497 80.2402 142.184 80.0449 141.119 79.6543C140.055 79.2637 139.156 78.6875 138.424 77.9258C137.691 77.1738 137.149 76.2559 136.798 75.1719H141.207C141.598 75.6211 142.101 75.958 142.716 76.1826C143.331 76.417 144.059 76.5342 144.898 76.5342C145.973 76.5342 146.837 76.3682 147.491 76.0361C148.146 75.7041 148.604 75.2744 148.868 74.7471C149.142 74.2197 149.278 73.3115 149.278 72.0225C148.575 72.7256 147.838 73.2334 147.066 73.5459C146.295 73.8486 145.421 74 144.444 74C142.306 74 140.499 73.2285 139.024 71.6855C137.55 70.1426 136.812 68.1895 136.812 65.8262C136.812 63.2969 137.594 61.2656 139.156 59.7324C140.572 58.3457 142.262 57.6523 144.225 57.6523C145.143 57.6523 146.007 57.8232 146.817 58.165C147.638 58.4971 148.458 59.0488 149.278 59.8203V58.0625ZM145.133 61.3877C143.873 61.3877 142.833 61.8125 142.013 62.6621C141.192 63.502 140.782 64.5615 140.782 65.8408C140.782 67.1689 141.202 68.2578 142.042 69.1074C142.882 69.957 143.937 70.3818 145.206 70.3818C146.446 70.3818 147.467 69.9668 148.268 69.1367C149.078 68.3066 149.483 67.2178 149.483 65.8701C149.483 64.542 149.078 63.4629 148.268 62.6328C147.457 61.8027 146.412 61.3877 145.133 61.3877ZM169.083 58.0625H173.067V74H169.083V72.3154C168.302 73.0576 167.516 73.5947 166.725 73.9268C165.943 74.249 165.094 74.4102 164.176 74.4102C162.115 74.4102 160.333 73.6143 158.829 72.0225C157.325 70.4209 156.573 68.4336 156.573 66.0605C156.573 63.5996 157.301 61.583 158.756 60.0107C160.211 58.4385 161.979 57.6523 164.059 57.6523C165.016 57.6523 165.914 57.833 166.754 58.1943C167.594 58.5557 168.37 59.0977 169.083 59.8203V58.0625ZM164.879 61.3438C163.639 61.3438 162.608 61.7832 161.788 62.6621C160.968 63.5312 160.558 64.6494 160.558 66.0166C160.558 67.3936 160.973 68.5264 161.803 69.415C162.643 70.3037 163.673 70.748 164.894 70.748C166.153 70.748 167.198 70.3135 168.028 69.4443C168.858 68.5654 169.273 67.418 169.273 66.002C169.273 64.6152 168.858 63.4922 168.028 62.6328C167.198 61.7734 166.148 61.3438 164.879 61.3438ZM176.173 58.0625H179.601V60.0693C179.972 59.2783 180.465 58.6777 181.08 58.2676C181.695 57.8574 182.369 57.6523 183.102 57.6523C183.619 57.6523 184.161 57.7891 184.728 58.0625L183.482 61.5049C183.014 61.2705 182.628 61.1533 182.325 61.1533C181.71 61.1533 181.188 61.5342 180.758 62.2959C180.338 63.0576 180.128 64.5518 180.128 66.7783L180.143 67.5547V74H176.173V58.0625ZM202.32 61.2852L198.995 63.1162C198.37 62.4619 197.75 62.0078 197.135 61.7539C196.529 61.5 195.816 61.373 194.996 61.373C193.502 61.373 192.291 61.8223 191.363 62.7207C190.445 63.6094 189.986 64.752 189.986 66.1484C189.986 67.5059 190.431 68.6143 191.319 69.4736C192.208 70.333 193.375 70.7627 194.82 70.7627C196.607 70.7627 197.999 70.1523 198.995 68.9316L202.145 71.085C200.436 73.3018 198.023 74.4102 194.908 74.4102C192.105 74.4102 189.908 73.5801 188.316 71.9199C186.734 70.2598 185.943 68.3164 185.943 66.0898C185.943 64.5469 186.329 63.126 187.101 61.8271C187.872 60.5283 188.946 59.5078 190.323 58.7656C191.71 58.0234 193.258 57.6523 194.967 57.6523C196.549 57.6523 197.97 57.9697 199.229 58.6045C200.489 59.2295 201.52 60.123 202.32 61.2852ZM207.506 51.5C208.209 51.5 208.81 51.7539 209.308 52.2617C209.815 52.7695 210.069 53.3848 210.069 54.1074C210.069 54.8203 209.82 55.4307 209.322 55.9385C208.824 56.4365 208.229 56.6855 207.535 56.6855C206.822 56.6855 206.212 56.4316 205.704 55.9238C205.206 55.4062 204.957 54.7812 204.957 54.0488C204.957 53.3457 205.206 52.7451 205.704 52.2471C206.202 51.749 206.803 51.5 207.506 51.5ZM205.499 58.0625H209.513V74H205.499V58.0625ZM224.923 58.0625H228.907V74H224.923V72.3154C224.142 73.0576 223.355 73.5947 222.564 73.9268C221.783 74.249 220.934 74.4102 220.016 74.4102C217.955 74.4102 216.173 73.6143 214.669 72.0225C213.165 70.4209 212.413 68.4336 212.413 66.0605C212.413 63.5996 213.141 61.583 214.596 60.0107C216.051 58.4385 217.818 57.6523 219.898 57.6523C220.855 57.6523 221.754 57.833 222.594 58.1943C223.434 58.5557 224.21 59.0977 224.923 59.8203V58.0625ZM220.719 61.3438C219.479 61.3438 218.448 61.7832 217.628 62.6621C216.808 63.5312 216.397 64.6494 216.397 66.0166C216.397 67.3936 216.812 68.5264 217.643 69.415C218.482 70.3037 219.513 70.748 220.733 70.748C221.993 70.748 223.038 70.3135 223.868 69.4443C224.698 68.5654 225.113 67.418 225.113 66.002C225.113 64.6152 224.698 63.4922 223.868 62.6328C223.038 61.7734 221.988 61.3438 220.719 61.3438Z" fill="#B91717"/>
<defs>
<linearGradient id="paint0_linear" x1="96.5501" y1="51.1375" x2="7.43606" y2="50.1039" gradientUnits="userSpaceOnUse">
<stop offset="0.0572917" stop-color="#FF0009"/>
<stop offset="0.5" stop-color="#310002"/>
<stop offset="1"/>
</linearGradient>
</defs>
</svg>
