<svg width="90" height="79" viewBox="0 0 90 79" fill="none" xmlns="http://www.w3.org/2000/svg">
<path fill-rule="evenodd" clip-rule="evenodd" d="M5.48389 18.8128C5.48389 18.8128 20.4606 -0.330043 44.3628 0.00432998C68.2272 0.338703 67.3195 10.2027 67.3195 10.2027L60.7388 9.99373C60.7388 9.99373 70.7611 11.7492 72.9169 14.1316C75.1104 16.5558 77.304 21.5714 77.304 21.5714C77.304 21.5714 85.8891 24.33 87.591 25.7093C89.3307 27.0886 90.1627 27.7155 89.9736 28.7186C89.8224 29.7635 87.9314 31.3518 87.9314 31.3518C87.9314 31.3518 89.5954 33.6506 88.9525 36.66C88.3474 39.6694 85.3218 40.0037 85.3218 40.0037C85.3218 40.0037 84.3385 42.1772 83.3173 43.5146C82.334 44.8521 80.1783 46.0642 80.1783 46.0642C80.1783 46.0642 81.086 42.6787 81.1616 41.6338C81.2372 40.5471 81.0481 39.7111 81.0481 39.7111C81.0481 39.7111 75.6021 39.2096 71.7066 41.6338C67.8112 44.0162 66.1471 46.524 66.1471 46.524C66.1471 46.524 68.8323 50.0767 70.7611 51.2888C72.6899 52.5009 74.1649 52.7935 75.7155 52.7935C77.2661 52.7935 79.7244 50.2021 79.7244 50.2021C79.7244 50.2021 80.1026 52.4591 79.6488 53.8384C79.2328 55.2177 79.3841 57.0986 79.6866 57.8509C80.027 58.5614 80.6699 61.8634 78.2495 64.3712C75.829 66.8372 72.463 67.2969 72.463 67.2969C72.463 67.2969 65.7689 66.1684 59.5286 69.5122C53.2883 72.8977 52.9479 73.5664 52.9479 73.5664C52.9479 73.5664 54.0447 69.5958 55.9357 67.3805C57.7889 65.1235 59.9824 63.0755 59.9824 63.0755C59.9824 63.0755 55.3684 63.8278 49.6954 68.3001C43.9846 72.8141 38.236 79 38.236 79C38.236 79 40.2026 67.2551 46.1025 62.4485C52.0024 57.6837 53.78 57.0568 53.78 57.0568C53.78 57.0568 48.7121 57.4747 45.9512 59.3556C43.1526 61.1946 41.6776 62.4067 41.6776 62.4067C41.6776 62.4067 46.216 55.0505 55.8222 49.1572C65.4285 43.3057 67.0548 41.9264 67.0548 41.9264C67.0548 41.9264 58.7722 42.5115 47.9179 50.6201C37.0635 58.7286 26.3605 70.2227 26.3605 70.2227C26.3605 70.2227 32.4495 57.015 41.1481 47.9451C49.8089 38.8752 56.6921 33.8178 56.6921 33.8178C56.6921 33.8178 51.6999 33.776 44.4763 36.4092C37.2526 39.0424 31.1636 42.8459 31.1636 42.8459C31.1636 42.8459 35.8533 37.4123 39.5218 35.1971C43.1904 32.9401 47.4262 30.5577 47.4262 30.5577C47.4262 30.5577 41.375 34.4448 26.9278 34.5284C21.8221 34.5702 16.9433 33.4834 12.821 32.0206C13.5774 31.2264 14.4094 30.4323 15.2414 29.6382C15.3927 29.471 15.5818 29.3038 15.7331 29.1784C19.8555 29.5546 24.3939 29.5964 28.9323 28.844C43.3795 26.4198 55.4062 18.2277 55.4062 18.2277C55.4062 18.2277 49.3172 17.4335 40.3539 19.9413C31.3527 22.4491 22.2381 25.9183 22.2381 25.9183C22.2381 25.9183 32.2226 16.1378 38.8789 14.257C45.4974 12.3761 47.6909 11.6656 47.6909 11.6656C47.6909 11.6656 37.2148 8.32186 27.5329 10.4535C17.851 12.6269 5.48389 18.8128 5.48389 18.8128ZM62.3273 24.2464C62.3273 24.2464 65.8067 21.3624 67.8868 20.6937C69.9669 20.0667 69.8156 20.4847 70.572 21.4878C71.3662 22.4909 71.9714 22.9507 72.9169 23.2851C73.8624 23.6612 75.413 24.4136 75.413 24.4136L62.3273 24.2464ZM1.28588 44.8521C1.28588 44.8521 2.0801 37.0362 7.90437 30.0561C3.0256 27.8409 0 25.6675 0 25.6675C0 25.6675 3.81981 27.1304 9.53063 28.2589C14.6363 20.3175 26.474 18.8964 26.474 18.8964C26.474 18.8964 17.851 24.8733 13.3504 29.6382C8.88769 34.3612 4.95441 38.3737 1.28588 44.8521Z" fill="url(#paint0_linear)"/>
<path fill-rule="evenodd" clip-rule="evenodd" d="M6.31592 47.0673C6.31592 47.0673 15.5818 49.1572 27.0791 47.4017C38.5385 45.6881 47.5397 39.0424 47.5397 39.0424C47.5397 39.0424 39.6353 49.9931 27.4573 51.1216C15.2792 52.2501 6.31592 47.0673 6.31592 47.0673Z" fill="#030303"/>
<defs>
<linearGradient id="paint0_linear" x1="89.5501" y1="40.1375" x2="0.436062" y2="39.1039" gradientUnits="userSpaceOnUse">
<stop offset="0.0572917" stop-color="#FF0009"/>
<stop offset="0.5" stop-color="#310002"/>
<stop offset="1"/>
</linearGradient>
</defs>
</svg>
